<svg width="747" height="140" viewBox="0 0 747 140" fill="none" xmlns="http://www.w3.org/2000/svg">
<path d="M63.369 88.756H29.047L23.545 105H0.0960001L33.37 13.038H59.308L92.582 105H68.871L63.369 88.756ZM57.605 71.464L46.208 37.797L34.942 71.464H57.605ZM125.11 44.085C127.73 40.0677 131.005 36.9237 134.935 34.653C138.865 32.295 143.232 31.116 148.035 31.116V54.827H141.878C136.289 54.827 132.097 56.0497 129.302 58.495C126.507 60.853 125.11 65.045 125.11 71.071V105H102.709V31.902H125.11V44.085ZM227.648 67.272C227.648 69.368 227.517 71.5513 227.255 73.822H176.558C176.907 78.3633 178.348 81.8567 180.881 84.302C183.501 86.66 186.689 87.839 190.444 87.839C196.033 87.839 199.92 85.481 202.103 80.765H225.945C224.722 85.5683 222.495 89.8913 219.264 93.734C216.12 97.5767 212.146 100.59 207.343 102.773C202.54 104.956 197.169 106.048 191.23 106.048C184.069 106.048 177.693 104.52 172.104 101.463C166.515 98.4063 162.148 94.0397 159.004 88.363C155.86 82.6863 154.288 76.049 154.288 68.451C154.288 60.853 155.816 54.2157 158.873 48.539C162.017 42.8623 166.384 38.4957 171.973 35.439C177.562 32.3823 183.981 30.854 191.23 30.854C198.304 30.854 204.592 32.3387 210.094 35.308C215.596 38.2773 219.875 42.513 222.932 48.015C226.076 53.517 227.648 59.936 227.648 67.272ZM204.723 61.377C204.723 57.5343 203.413 54.4777 200.793 52.207C198.173 49.9363 194.898 48.801 190.968 48.801C187.213 48.801 184.025 49.8927 181.405 52.076C178.872 54.2593 177.3 57.3597 176.689 61.377H204.723ZM341.896 31.902L296.046 139.715H271.942L288.71 102.511L258.973 31.902H283.994L300.893 77.621L317.661 31.902H341.896ZM383.271 106.048C376.11 106.048 369.647 104.52 363.883 101.463C358.206 98.4063 353.709 94.0397 350.39 88.363C347.159 82.6863 345.543 76.049 345.543 68.451C345.543 60.9403 347.202 54.3467 350.521 48.67C353.84 42.906 358.381 38.4957 364.145 35.439C369.909 32.3823 376.372 30.854 383.533 30.854C390.694 30.854 397.157 32.3823 402.921 35.439C408.685 38.4957 413.226 42.906 416.545 48.67C419.864 54.3467 421.523 60.9403 421.523 68.451C421.523 75.9617 419.82 82.599 416.414 88.363C413.095 94.0397 408.51 98.4063 402.659 101.463C396.895 104.52 390.432 106.048 383.271 106.048ZM383.271 86.66C387.55 86.66 391.175 85.088 394.144 81.944C397.201 78.8 398.729 74.3023 398.729 68.451C398.729 62.5997 397.244 58.102 394.275 54.958C391.393 51.814 387.812 50.242 383.533 50.242C379.166 50.242 375.542 51.814 372.66 54.958C369.778 58.0147 368.337 62.5123 368.337 68.451C368.337 74.3023 369.734 78.8 372.529 81.944C375.411 85.088 378.992 86.66 383.271 86.66ZM505.588 31.902V105H483.187V95.044C480.916 98.2753 477.816 100.895 473.886 102.904C470.043 104.825 465.764 105.786 461.048 105.786C455.459 105.786 450.524 104.563 446.245 102.118C441.966 99.5853 438.647 95.961 436.289 91.245C433.931 86.529 432.752 80.9833 432.752 74.608V31.902H455.022V71.595C455.022 76.4857 456.288 80.2847 458.821 82.992C461.354 85.6993 464.76 87.053 469.039 87.053C473.406 87.053 476.855 85.6993 479.388 82.992C481.921 80.2847 483.187 76.4857 483.187 71.595V31.902H505.588ZM586.119 50.504H574.067V105H551.666V50.504H543.544V31.902H551.666V29.806C551.666 20.8107 554.243 13.9987 559.395 9.37C564.548 4.654 572.102 2.29599 582.058 2.29599C583.718 2.29599 584.94 2.33966 585.726 2.42699V21.422C581.447 21.16 578.434 21.7713 576.687 23.256C574.941 24.7407 574.067 27.4043 574.067 31.247V31.902H586.119V50.504ZM607.911 24.304C603.981 24.304 600.75 23.1687 598.217 20.898C595.772 18.54 594.549 15.658 594.549 12.252C594.549 8.75866 595.772 5.87666 598.217 3.60599C600.75 1.24799 603.981 0.0689923 607.911 0.0689923C611.754 0.0689923 614.898 1.24799 617.343 3.60599C619.876 5.87666 621.142 8.75866 621.142 12.252C621.142 15.658 619.876 18.54 617.343 20.898C614.898 23.1687 611.754 24.304 607.911 24.304ZM619.046 31.902V105H596.645V31.902H619.046ZM676.021 86.005V105H664.624C656.502 105 650.171 103.035 645.629 99.105C641.088 95.0877 638.817 88.5813 638.817 79.586V50.504H629.909V31.902H638.817V14.086H661.218V31.902H675.89V50.504H661.218V79.848C661.218 82.0313 661.742 83.6033 662.79 84.564C663.838 85.5247 665.585 86.005 668.03 86.005H676.021ZM715.354 7.92899C724.699 7.92899 732.166 10.3743 737.755 15.265C743.432 20.1557 746.27 27.055 746.27 35.963C746.27 44.1723 743.563 50.5913 738.148 55.22C732.821 59.7613 725.747 62.0757 716.926 62.163L716.271 71.988H696.621L695.966 47.622H703.826C710.551 47.622 715.66 46.7923 719.153 45.133C722.734 43.4737 724.524 40.4607 724.524 36.094C724.524 33.0373 723.694 30.6357 722.035 28.889C720.376 27.1423 718.061 26.269 715.092 26.269C711.948 26.269 709.503 27.186 707.756 29.02C706.009 30.7667 705.136 33.1683 705.136 36.225H684.045C683.87 30.8977 684.962 26.0943 687.32 21.815C689.765 17.5357 693.346 14.1733 698.062 11.728C702.865 9.19533 708.629 7.92899 715.354 7.92899ZM706.708 106.048C702.778 106.048 699.547 104.913 697.014 102.642C694.569 100.284 693.346 97.402 693.346 93.996C693.346 90.5027 694.569 87.577 697.014 85.219C699.547 82.861 702.778 81.682 706.708 81.682C710.551 81.682 713.695 82.861 716.14 85.219C718.673 87.577 719.939 90.5027 719.939 93.996C719.939 97.402 718.673 100.284 716.14 102.642C713.695 104.913 710.551 106.048 706.708 106.048Z" fill="url(#paint0_linear)"/>
<defs>
<linearGradient id="paint0_linear" x1="-54.7199" y1="-18" x2="314.936" y2="444.616" gradientUnits="userSpaceOnUse">
<stop stop-color="#25AAE1"/>
<stop offset="0.424359" stop-color="#4AA8C1" stop-opacity="0.923236"/>
<stop offset="1" stop-color="#31B346" stop-opacity="0.35"/>
</linearGradient>
</defs>
</svg>
